<?xml version="1.0" encoding="UTF-8"?>
<svg version="1.1" xmlns="http://www.w3.org/2000/svg" width="96" height="96">
<path d="M0 0 C0.69512695 -0.0038269 1.39025391 -0.00765381 2.10644531 -0.01159668 C3.57228041 -0.0143118 5.03816428 -0.00697835 6.50390625 0.00976562 C8.74328975 0.03118581 10.97946587 0.00995557 13.21875 -0.015625 C14.64584039 -0.01298165 16.07292879 -0.0078565 17.5 0 C19.44132812 0.00676758 19.44132812 0.00676758 21.421875 0.01367188 C24.75 0.53125 24.75 0.53125 27.17651367 2.3371582 C29.44584179 5.50154173 29.2224402 8.48325782 29.0625 12.21875 C29.04799805 13.25225586 29.04799805 13.25225586 29.03320312 14.30664062 C28.91886475 19.36238525 28.91886475 19.36238525 27.75 20.53125 C25.09536879 20.98584858 22.42810862 21.23368238 19.75 21.53125 C20.25789063 21.85996094 20.76578125 22.18867188 21.2890625 22.52734375 C28.90857754 27.79251426 33.92215474 34.48657967 36.2734375 43.5234375 C37.50323206 51.28525563 38.78262988 61.20431962 34.6875 68.21875 C33.296875 69.9609375 33.296875 69.9609375 31.75 71.53125 C31.21890625 72.09070313 30.6878125 72.65015625 30.140625 73.2265625 C23.12790637 79.88542836 15.9753206 81.00027814 6.61132812 80.87841797 C-2.72898036 80.54796188 -7.34691844 77.90017719 -14.26953125 71.76171875 C-18.73942874 66.72757384 -19.78130706 61.99880167 -19.6875 55.40625 C-19.67992676 54.65996338 -19.67235352 53.91367676 -19.66455078 53.14477539 C-19.36275604 42.88705859 -16.31976072 34.0917139 -9.25 26.53125 C-4.85 22.53125 -4.85 22.53125 -2.25 22.53125 C-2.25 21.87125 -2.25 21.21125 -2.25 20.53125 C-3.549375 20.551875 -4.84875 20.5725 -6.1875 20.59375 C-7.54165633 20.61524454 -8.89756083 20.60273199 -10.25 20.53125 C-12.22796285 18.55328715 -11.5247259 14.91078454 -11.5625 12.21875 C-11.59150391 11.54134766 -11.62050781 10.86394531 -11.65039062 10.16601562 C-11.69096962 6.97276076 -11.55983647 4.9632904 -9.67651367 2.3371582 C-6.35953769 -0.13146755 -4.10949887 0.01432594 0 0 Z M-7.25 8.53125 C-7.72800058 10.6566349 -7.72800058 10.6566349 -7.5 12.78125 C-7.4175 14.01875 -7.335 15.25625 -7.25 16.53125 C-3.21874153 16.88625654 -3.21874153 16.88625654 0.75 16.53125 C1.20375 15.70625 1.6575 14.88125 2.125 14.03125 C3.75 11.53125 3.75 11.53125 6.0390625 11.0234375 C8.75394708 10.90607938 11.09495608 10.94224708 13.75 11.53125 C15.375 14.03125 15.375 14.03125 16.75 16.53125 C19.53619448 17.00776213 21.90128858 16.76475094 24.75 16.53125 C24.8325 15.29375 24.915 14.05625 25 12.78125 C25.04640625 12.08515625 25.0928125 11.3890625 25.140625 10.671875 C24.57465592 7.57036447 23.16094564 6.50568759 20.75 4.53125 C18.12204434 3.92095714 18.12204434 3.92095714 15.25 4 C14.198125 3.99484375 13.14625 3.9896875 12.0625 3.984375 C10.4228125 4.00757813 10.4228125 4.00757813 8.75 4.03125 C7.656875 4.01578125 6.56375 4.0003125 5.4375 3.984375 C4.385625 3.98953125 3.33375 3.9946875 2.25 4 C0.81140625 4.00676758 0.81140625 4.00676758 -0.65625 4.01367188 C-3.96559155 4.674045 -5.16840736 5.92956158 -7.25 8.53125 Z " fill="#21D336" transform="translate(39.25,7.46875)"/>
<path d="M0 0 C8.50679674 -0.32076911 15.3568667 2.4178498 21.65234375 8.15234375 C25.20229217 12.32875366 26.33385491 16.44542983 26.01953125 21.890625 C24.94229611 28.52593508 22.10651973 32.144519 16.71484375 36.08984375 C10.39455326 40.37826342 4.12161632 40.76366814 -3.34765625 40.15234375 C-10.0728557 38.78359322 -15.54519998 36.14213352 -19.6015625 30.3671875 C-22.40199648 25.45910982 -23.57969077 20.73440784 -22.34765625 15.15234375 C-19.3902827 8.53602993 -14.9424911 4.1026646 -8.34765625 1.15234375 C-5.5021857 0.34818903 -2.93481043 0.19044527 0 0 Z " fill="#FBC108" transform="translate(46.34765625,43.84765625)"/>
<path d="M0 0 C5.74111979 4.17684892 10.31885164 8.31814123 13 15 C13.89236835 20.99374077 14.06232569 27.0850758 10.9375 32.4375 C6.36682696 38.52317141 0.67481932 43.59820652 -7 45 C-18.25999468 45.83665595 -26.89704664 45.63603372 -35.8125 38.1875 C-41.30013253 32.94586479 -43.14014222 29.2522296 -43.5 21.625 C-43.30975887 14.35448037 -41.30109226 10.51406595 -36.42578125 5.32421875 C-26.47963153 -4.01913401 -12.34414113 -6.24075816 0 0 Z M-35 9 C-38.52417678 13.1379379 -39.66611951 17.38505401 -39.375 22.734375 C-38.3957507 28.65067288 -35.84441883 32.64042237 -31.1875 36.375 C-24.51475562 40.89722824 -17.87704438 41.60390674 -10 41 C-3.81708047 39.73817969 2.52253257 36.13812542 6.46484375 31.14453125 C9.16404053 26.33208433 10.1975998 21.42604831 9 16 C6.04688606 9.3932159 1.57092036 4.97952664 -5 2 C-15.80071561 -1.40504488 -26.95332756 1.27377027 -35 9 Z " fill="#46BD1D" transform="translate(63,43)"/>
<path d="M0 0 C1.04269043 -0.00574036 1.04269043 -0.00574036 2.10644531 -0.01159668 C3.57228041 -0.0143118 5.03816428 -0.00697835 6.50390625 0.00976562 C8.74328975 0.03118581 10.97946587 0.00995557 13.21875 -0.015625 C14.64584039 -0.01298165 16.07292879 -0.0078565 17.5 0 C19.44132812 0.00676758 19.44132812 0.00676758 21.421875 0.01367188 C24.75 0.53125 24.75 0.53125 27.17651367 2.3371582 C29.44584179 5.50154173 29.2224402 8.48325782 29.0625 12.21875 C29.04799805 13.25225586 29.04799805 13.25225586 29.03320312 14.30664062 C28.91886475 19.36238525 28.91886475 19.36238525 27.75 20.53125 C25.722246 20.78874257 23.69371791 21.04332223 21.66015625 21.25 C19.66911653 21.44162786 19.66911653 21.44162786 17.75 22.53125 C16.41239228 22.21550569 15.07960934 21.87914062 13.75 21.53125 C8.33451221 21.22741075 3.07015887 21.41121655 -2.25 22.53125 C-2.25 21.87125 -2.25 21.21125 -2.25 20.53125 C-3.549375 20.551875 -4.84875 20.5725 -6.1875 20.59375 C-7.54165633 20.61524454 -8.89756083 20.60273199 -10.25 20.53125 C-12.22796285 18.55328715 -11.5247259 14.91078454 -11.5625 12.21875 C-11.59150391 11.54134766 -11.62050781 10.86394531 -11.65039062 10.16601562 C-11.69096962 6.97276076 -11.55983647 4.9632904 -9.67651367 2.3371582 C-6.35953769 -0.13146755 -4.10949887 0.01432594 0 0 Z M-7.25 8.53125 C-7.72800058 10.6566349 -7.72800058 10.6566349 -7.5 12.78125 C-7.4175 14.01875 -7.335 15.25625 -7.25 16.53125 C-3.21874153 16.88625654 -3.21874153 16.88625654 0.75 16.53125 C1.20375 15.70625 1.6575 14.88125 2.125 14.03125 C3.75 11.53125 3.75 11.53125 6.0390625 11.0234375 C8.75394708 10.90607938 11.09495608 10.94224708 13.75 11.53125 C15.375 14.03125 15.375 14.03125 16.75 16.53125 C19.53619448 17.00776213 21.90128858 16.76475094 24.75 16.53125 C24.8325 15.29375 24.915 14.05625 25 12.78125 C25.04640625 12.08515625 25.0928125 11.3890625 25.140625 10.671875 C24.57465592 7.57036447 23.16094564 6.50568759 20.75 4.53125 C18.12204434 3.92095714 18.12204434 3.92095714 15.25 4 C14.198125 3.99484375 13.14625 3.9896875 12.0625 3.984375 C10.4228125 4.00757813 10.4228125 4.00757813 8.75 4.03125 C7.656875 4.01578125 6.56375 4.0003125 5.4375 3.984375 C4.385625 3.98953125 3.33375 3.9946875 2.25 4 C0.81140625 4.00676758 0.81140625 4.00676758 -0.65625 4.01367188 C-3.96559155 4.674045 -5.16840736 5.92956158 -7.25 8.53125 Z " fill="#43BC1E" transform="translate(39.25,7.46875)"/>
<path d="M0 0 C2.64 0 5.28 0 8 0 C8.26554687 0.62648437 8.53109375 1.25296875 8.8046875 1.8984375 C9.15789063 2.71570312 9.51109375 3.53296875 9.875 4.375 C10.22304688 5.18710937 10.57109375 5.99921875 10.9296875 6.8359375 C11.92446067 9.13802299 11.92446067 9.13802299 14 11 C13.92441916 15.08136534 13.60131963 17.28934953 10.9375 20.4375 C6.88758087 22.5917123 4.56839461 22.4350852 0 22 C-3.4203866 20.82986774 -3.91540482 20.12689277 -6 17 C-6.49495386 13.20535377 -6.45095825 11.60127767 -4.125 8.5 C-3.42375 7.675 -2.7225 6.85 -2 6 C-0.74443113 2.82078213 -0.74443113 2.82078213 0 0 Z " fill="#FEEF73" transform="translate(44,44)"/>
<path d="M0 0 C0.86625 -0.00773437 1.7325 -0.01546875 2.625 -0.0234375 C5.49559088 0.45814189 6.29666941 1.04385572 8 3.375 C8.94921875 5.63671875 8.94921875 5.63671875 9.6875 8.0625 C9.93886719 8.87074219 10.19023438 9.67898437 10.44921875 10.51171875 C10.63097656 11.12660156 10.81273438 11.74148437 11 12.375 C10.21625 12.21 9.4325 12.045 8.625 11.875 C2.0317512 10.96558637 -4.46960284 11.00017955 -11 12.375 C-11 11.715 -11 11.055 -11 10.375 C-10.34 10.375 -9.68 10.375 -9 10.375 C-8.896875 9.281875 -8.79375 8.18875 -8.6875 7.0625 C-7.62572691 1.36753526 -5.72666743 -0.05113096 0 0 Z " fill="#279B23" transform="translate(48,17.625)"/>
</svg>
